<svg id="visual" viewBox="0 0 960 540" width="960" height="540" xmlns="http://www.w3.org/2000/svg" xmlns:xlink="http://www.w3.org/1999/xlink" version="1.1"><rect x="0" y="0" width="960" height="540" fill="#6e58ff"></rect><path d="M449 540L465.5 530C482 520 515 500 529.5 480C544 460 540 440 533.2 420C526.3 400 516.7 380 507.2 360C497.7 340 488.3 320 485.7 300C483 280 487 260 501.8 240C516.7 220 542.3 200 542 180C541.7 160 515.3 140 488.8 120C462.3 100 435.7 80 428.2 60C420.7 40 432.3 20 438.2 10L444 0L960 0L960 10C960 20 960 40 960 60C960 80 960 100 960 120C960 140 960 160 960 180C960 200 960 220 960 240C960 260 960 280 960 300C960 320 960 340 960 360C960 380 960 400 960 420C960 440 960 460 960 480C960 500 960 520 960 530L960 540Z" fill="#002232" stroke-linecap="round" stroke-linejoin="miter"></path></svg>