<svg id="visual" viewBox="0 0 960 540" width="960" height="540" xmlns="http://www.w3.org/2000/svg" xmlns:xlink="http://www.w3.org/1999/xlink" version="1.1"><rect x="0" y="0" width="960" height="540" fill="#211951"></rect><path d="M504 540L501 527.2C498 514.3 492 488.7 486.7 463C481.3 437.3 476.7 411.7 468.5 386C460.3 360.3 448.7 334.7 454.7 308.8C460.7 283 484.3 257 486.3 231.2C488.3 205.3 468.7 179.7 468.7 154C468.7 128.3 488.3 102.7 493.3 77C498.3 51.3 488.7 25.7 483.8 12.8L479 0L960 0L960 12.8C960 25.7 960 51.3 960 77C960 102.7 960 128.3 960 154C960 179.7 960 205.3 960 231.2C960 257 960 283 960 308.8C960 334.7 960 360.3 960 386C960 411.7 960 437.3 960 463C960 488.7 960 514.3 960 527.2L960 540Z" fill="#15F5BA" stroke-linecap="round" stroke-linejoin="miter"></path></svg>