<svg id="visual" viewBox="0 0 900 600" width="900" height="600" xmlns="http://www.w3.org/2000/svg" xmlns:xlink="http://www.w3.org/1999/xlink" version="1.1"><rect x="0" y="0" width="900" height="600" fill="#FFFAE6"></rect><path d="M409 600L420.2 585.7C431.3 571.3 453.7 542.7 454 514.2C454.3 485.7 432.7 457.3 428.8 428.8C425 400.3 439 371.7 447.3 343C455.7 314.3 458.3 285.7 461 257C463.7 228.3 466.3 199.7 457.7 171.2C449 142.7 429 114.3 432.8 85.8C436.7 57.3 464.3 28.7 478.2 14.3L492 0L900 0L900 14.3C900 28.7 900 57.3 900 85.8C900 114.3 900 142.7 900 171.2C900 199.7 900 228.3 900 257C900 285.7 900 314.3 900 343C900 371.7 900 400.3 900 428.8C900 457.3 900 485.7 900 514.2C900 542.7 900 571.3 900 585.7L900 600Z" fill="#FF9F66" stroke-linecap="round" stroke-linejoin="miter"></path></svg>